#!OML:ASF X:\für Bonn\!DataBase\2005_08_10_Bjorn_Final\c3d\bjorn.ASF
:FULLY-SPECIFIED
:DEGREES
316
root 14.064 19.1937 2.8349 1104.92 -80.8555 -380.612
lowerback 6.40208 -0.0950837 -2.54917
upperback 8.61603 -0.420579 -4.51082
thorax 5.37261 -0.366486 -3.2918
lowerneck 6.28483 -2.76573 7.7131
upperneck 7.67607 -3.72731 3.52126
head 1.28172 -1.73512 -0.147363
rclavicle 1.43125e-014 -3.49861e-014
rhumerus -36.7627 3.29269 -79.7091
rradius 49.0026
rwrist -20.9047
rhand 8.73633 0.832882
rfingers 7.12502
rthumb 33.9268 -25.9671
lclavicle 1.43125e-014 -3.49861e-014
lhumerus -26.7156 -11.6619 78.9662
lradius 44.4216
lwrist -3.8866
lhand -25.8875 -4.80094
lfingers 7.12502
lthumb 0.654421 25.1778
rfemur -16.038 -3.53903 14.6735
rtibia 37.8004
rfoot -15.3808 11.0083
rtoes -2.56917
lfemur -7.10297 8.10627 -16.7024
ltibia 27.0574
lfoot -19.1509 -4.70053
ltoes -11.2063
317
root 14.0152 19.2015 2.84446 1106.15 -80.9903 -381.591
lowerback 5.85536 -0.270144 -2.59273
upperback 8.13305 -0.613181 -4.4938
thorax 5.15473 -0.451618 -3.23873
lowerneck 6.64113 -2.64236 7.60357
upperneck 7.82758 -3.55029 3.43621
head 1.27453 -1.65403 -0.153429
rclavicle -2.54444e-014 -6.99722e-014
rhumerus -37.5497 2.57353 -79.8137
rradius 49.6157
rwrist -20.9849
rhand 8.52945 0.79812
rfingers 7.12502
rthumb 33.7303 -26.0451
lclavicle -2.54444e-014 -6.99722e-014
lhumerus -27.2427 -11.455 79.1441
lradius 44.5221
lwrist -4.3164
lhand -25.2176 -4.63345
lfingers 7.12502
lthumb 1.30145 25.3423
rfemur -16.6369 -3.87321 14.9121
rtibia 38.5542
rfoot -15.2003 11.2427
rtoes -2.95973
lfemur -7.01688 8.32794 -16.612
ltibia 26.6894
lfoot -19.1901 -4.74653
ltoes -11.4862
318
root 13.9658 19.208 2.85298 1107.36 -81.1317 -382.537
lowerback 5.28234 -0.429813 -2.65953
upperback 7.70704 -0.786604 -4.45313
thorax 5.01689 -0.530481 -3.15251
lowerneck 6.81594 -2.51951 7.47815
upperneck 8.03085 -3.39421 3.34639
head 1.31324 -1.57889 -0.161988
rclavicle 7.95139e-016 -7.95139e-014
rhumerus -38.2938 1.90333 -79.8854
rradius 50.3007
rwrist -21.0691
rhand 8.26012 0.770932
rfingers 7.12502
rthumb 33.4743 -26.128
lclavicle 7.95139e-016 -7.95139e-014
lhumerus -27.6408 -11.2983 79.3522
lradius 44.5846
lwrist -4.81315
lhand -24.554 -4.41963
lfingers 7.12502
lthumb 1.94233 25.5513
rfemur -17.225 -4.13251 15.1444
rtibia 39.3084
rfoot -15.0607 11.4843
rtoes -3.29816
lfemur -6.93367 8.51407 -16.5404
ltibia 26.334
lfoot -19.269 -4.7314
ltoes -11.9265
319
root 13.9168 19.214 2.85957 1108.56 -81.267 -383.511
lowerback 4.76009 -0.58926 -2.73194
upperback 7.29683 -0.964712 -4.40078
thorax 4.87012 -0.612935 -3.05254
lowerneck 6.944 -2.37711 7.29729
upperneck 8.23128 -3.22381 3.32984
head 1.36084 -1.4973 -0.139661
rclavicle 1.43125e-014 -2.06736e-014
rhumerus -39.0196 1.26617 -79.9598
rradius 50.9848
rwrist -21.2957
rhand 7.92426 0.704956
rfingers 7.12502
rthumb 33.155 -26.2624
lclavicle 1.43125e-014 -2.06736e-014
lhumerus -27.9097 -11.1075 79.5773
lradius 44.4031
lwrist -5.33037
lhand -24.0086 -4.30929
lfingers 7.12502
lthumb 2.46901 25.6562
rfemur -17.7985 -4.37897 15.3945
rtibia 40.0503
rfoot -14.9331 11.7268
rtoes -3.66539
lfemur -6.83508 8.62934 -16.4627
ltibia 25.9972
lfoot -19.3501 -4.7181
ltoes -12.0971
320
root 13.8689 19.2198 2.86552 1109.74 -81.3864 -384.444
lowerback 4.25656 -0.744275 -2.80464
upperback 6.899 -1.13935 -4.34028
thorax 4.72879 -0.694209 -2.94591
lowerneck 7.05114 -2.25019 7.18512
upperneck 8.38664 -3.06547 3.26917
head 1.39572 -1.42116 -0.141913
rclavicle 8.74653e-015 -4.77083e-015
rhumerus -39.7333 0.522874 -79.9827
rradius 51.6855
rwrist -21.4746
rhand 7.69923 0.64645
rfingers 7.12502
rthumb 32.941 -26.3662
lclavicle 8.74653e-015 -4.77083e-015
lhumerus -28.1285 -10.9182 79.8113
lradius 44.211
lwrist -5.9483
lhand -23.4116 -4.19829
lfingers 7.12502
lthumb 3.04559 25.7597
rfemur -18.3994 -4.61225 15.6484
rtibia 40.7836
rfoot -14.8185 11.9989
rtoes -4.04098
lfemur -6.75742 8.83505 -16.383
ltibia 25.6474
lfoot -19.4086 -4.75852
ltoes -12.396
321
root 13.8214 19.2251 2.8703 1111.16 -81.4801 -385.619
lowerback 3.77395 -0.894359 -2.84936
upperback 6.52621 -1.30957 -4.23946
thorax 4.60465 -0.773176 -2.815
lowerneck 7.08697 -2.13305 7.05998
upperneck 8.53669 -2.92331 3.18235
head 1.43995 -1.35223 -0.150958
rclavicle -5.56597e-015 -9.54166e-015
rhumerus -40.3965 -0.170294 -79.9869
rradius 52.348
rwrist -21.7216
rhand 7.36834 0.667655
rfingers 7.12502
rthumb 32.6262 -26.4107
lclavicle -5.56597e-015 -9.54166e-015
lhumerus -28.3009 -10.683 80.1001
lradius 44.026
lwrist -6.57402
lhand -22.836 -4.05652
lfingers 7.12502
lthumb 3.60151 25.8928
rfemur -19.0075 -4.80735 15.9555
rtibia 41.5041
rfoot -14.7172 12.2868
rtoes -4.40285
lfemur -6.66026 9.00613 -16.2556
ltibia 25.2858
lfoot -19.4855 -4.78025
ltoes -12.8332
322
root 13.7734 19.2318 2.87451 1112.54 -81.5867 -386.775
lowerback 3.29392 -1.03625 -2.91974
upperback 6.20179 -1.47018 -4.13667
thorax 4.53334 -0.849714 -2.67119
lowerneck 7.00731 -2.0074 6.97186
upperneck 8.67578 -2.77577 3.10389
head 1.49965 -1.2779 -0.164904
rclavicle -1.11319e-014 -5.08889e-014
rhumerus -41.0059 -0.874035 -79.9753
rradius 53.0507
rwrist -22.0586
rhand 7.08685 0.661095
rfingers 7.12502
rthumb 32.3584 -26.4723
lclavicle -1.11319e-014 -5.08889e-014
lhumerus -28.3675 -10.3605 80.3559
lradius 43.8055
lwrist -7.3652
lhand -22.2283 -3.98632
lfingers 7.12502
lthumb 4.18834 25.9522
rfemur -19.6295 -4.98385 16.2505
rtibia 42.2097
rfoot -14.6133 12.6196
rtoes -4.79294
lfemur -6.5329 9.17259 -16.1384
ltibia 24.9114
lfoot -19.5468 -4.86136
ltoes -12.9825
323
root 13.7247 19.239 2.87874 1113.92 -81.6819 -387.924
lowerback 2.80955 -1.1893 -2.98688
upperback 5.91001 -1.64582 -4.02582
thorax 4.50066 -0.934333 -2.52412
lowerneck 6.80852 -1.86905 6.91335
upperneck 8.83545 -2.61791 3.00351
head 1.58553 -1.19524 -0.192163
rclavicle -1.51076e-014 -1.27222e-014
rhumerus -41.5516 -1.5875 -79.9449
rradius 53.7335
rwrist -22.3146
rhand 6.84617 0.651552
rfingers 7.12502
rthumb 32.1293 -26.5284
lclavicle -1.51076e-014 -1.27222e-014
lhumerus -28.3536 -9.83757 80.5928
lradius 43.5335
lwrist -8.35292
lhand -21.624 -3.94488
lfingers 7.12502
lthumb 4.77187 25.9814
rfemur -20.2722 -5.16134 16.542
rtibia 42.8834
rfoot -14.5331 12.9952
rtoes -5.53198
lfemur -6.42212 9.40025 -16.023
ltibia 24.5378
lfoot -19.6114 -4.92662
ltoes -13.3685
324
root 13.6745 19.245 2.88326 1115.55 -81.7893 -389.344
lowerback 2.35204 -1.33584 -3.04771
upperback 5.62476 -1.81529 -3.88265
thorax 4.46235 -1.01623 -2.34825
lowerneck 6.55139 -1.72101 6.81815
upperneck 9.00585 -2.45217 2.89923
head 1.6854 -1.10849 -0.215128
rclavicle 2.06736e-014 1.59028e-015
rhumerus -42.0369 -2.31635 -79.8837
rradius 54.2783
rwrist -22.5164
rhand 6.59171 0.696844
rfingers 7.12502
rthumb 31.887 -26.5317
lclavicle 2.06736e-014 1.59028e-015
lhumerus -28.3237 -9.27301 80.8603
lradius 43.2449
lwrist -9.39546
lhand -21.0744 -3.93966
lfingers 7.12502
lthumb 5.30253 25.974
rfemur -20.9056 -5.26855 16.8565
rtibia 43.4983
rfoot -14.3817 13.4697
rtoes -6.17412
lfemur -6.2935 9.57292 -15.8949
ltibia 24.179
lfoot -19.7082 -4.89959
ltoes -13.9455
325
root 13.6235 19.2468 2.88763 1117.16 -81.9092 -390.74
lowerback 1.91256 -1.4663 -3.08617
upperback 5.35395 -1.96491 -3.77112
thorax 4.42939 -1.08722 -2.21919
lowerneck 6.19987 -1.57873 6.7954
upperneck 9.22767 -2.30279 2.8174
head 1.81823 -1.02541 -0.243946
rclavicle 8.74653e-015 3.33958e-014
rhumerus -42.4476 -3.13501 -79.8713
rradius 54.6875
rwrist -22.7047
rhand 6.3207 0.693371
rfingers 7.12502
rthumb 31.6289 -26.5863
lclavicle 8.74653e-015 3.33958e-014
lhumerus -28.2908 -8.85092 81.0958
lradius 43.0177
lwrist -10.3615
lhand -20.4722 -3.90079
lfingers 7.12502
lthumb 5.88398 25.9975
rfemur -21.557 -5.39855 17.148
rtibia 44.0357
rfoot -14.0494 14.1819
rtoes -6.06751
lfemur -6.16325 9.71538 -15.7849
ltibia 23.8433
lfoot -19.8116 -4.88707
ltoes -14.1416
326
root 13.5725 19.2476 2.89194 1118.89 -81.9741 -392.277
lowerback 1.53737 -1.60063 -3.07581
upperback 5.06876 -2.12496 -3.63069
thorax 4.34514 -1.16149 -2.08616
lowerneck 5.75427 -1.43465 6.79052
upperneck 9.60124 -2.16411 2.68147
head 2.01726 -0.943248 -0.294403
rclavicle -2.70347e-014 -4.13472e-014
rhumerus -42.8236 -4.02146 -79.8256
rradius 54.9543
rwrist -22.7498
rhand 6.07985 0.751367
rfingers 7.12502
rthumb 31.3994 -26.5732
lclavicle -2.70347e-014 -4.13472e-014
lhumerus -28.3018 -8.5352 81.3893
lradius 42.8193
lwrist -11.2929
lhand -19.8659 -3.81944
lfingers 7.12502
lthumb 6.4693 26.0618
rfemur -22.2111 -5.51631 17.485
rtibia 44.4767
rfoot -13.6237 14.9861
rtoes -5.71093
lfemur -6.03178 9.90726 -15.6235
ltibia 23.5283
lfoot -19.9053 -4.91798
ltoes -14.5091
327
root 13.5206 19.2488 2.89547 1120.61 -82.0333 -393.835
lowerback 1.19815 -1.73348 -3.07046
upperback 4.81751 -2.28577 -3.47568
thorax 4.27809 -1.23738 -1.93646
lowerneck 5.13337 -1.28441 6.78283
upperneck 10.0958 -2.03308 2.49846
head 2.28872 -0.860697 -0.361668
rclavicle -7.15625e-015 3.97569e-014
rhumerus -43.116 -4.93074 -79.7916
rradius 55.1066
rwrist -22.7303
rhand 5.8264 0.825554
rfingers 7.12502
rthumb 31.1579 -26.5457
lclavicle -7.15625e-015 3.97569e-014
lhumerus -28.258 -8.21946 81.6847
lradius 42.6413
lwrist -12.2033
lhand -19.209 -3.70755
lfingers 7.12502
lthumb 7.10337 26.1532
rfemur -22.8568 -5.62374 17.8212
rtibia 44.8294
rfoot -13.1345 15.8365
rtoes -4.95926
lfemur -5.8698 10.1092 -15.4536
ltibia 23.2162
lfoot -20.0211 -4.96031
ltoes -14.9535
328
root 13.4677 19.2502 2.89944 1122.4 -82.0927 -395.465
lowerback 0.902439 -1.85802 -3.05028
upperback 4.56003 -2.43909 -3.32322
thorax 4.18039 -1.30895 -1.79669
lowerneck 4.56666 -1.14134 6.84613
upperneck 10.5791 -1.90012 2.27335
head 2.55074 -0.778067 -0.453322
rclavicle 2.42517e-014 2.54444e-014
rhumerus -43.461 -5.82487 -79.7613
rradius 55.2732
rwrist -22.7632
rhand 5.51455 0.935301
rfingers 7.12502
rthumb 30.8606 -26.4926
lclavicle 2.42517e-014 2.54444e-014
lhumerus -28.2025 -7.89232 81.9774
lradius 42.4284
lwrist -13.2248
lhand -18.562 -3.61167
lfingers 7.12502
lthumb 7.72796 26.2271
rfemur -23.4787 -5.71732 18.1497
rtibia 45.096
rfoot -12.6394 16.7274
rtoes -3.99093
lfemur -5.68381 10.217 -15.2892
ltibia 22.8969
lfoot -20.1463 -4.94222
ltoes -15.1602
